<svg xmlns="http://www.w3.org/2000/svg" width="51" height="56" fill="none" viewBox="0 0 51 56"><path fill="#2e2f42" d="M49.43 23.54a3.55 3.55 0 0 0-2.377-1.41 3.55 3.55 0 0 0-2.68.704l-2.503 1.92h-.001l-3.796 2.835-2.715-1.082c4.842-2.173 8.227-7.017 8.227-12.64C43.585 6.22 37.34 0 29.663 0S15.74 6.22 15.74 13.867c0 2.771.828 5.348 2.24 7.517l-5.528-.048h-.01c-.017 0-.03.008-.047.01q-.158.007-.31.061c-.026.01-.052.015-.077.027-.013.005-.025.006-.038.013l-6.466 3.192-.002.001-3.787 1.821a1 1 0 0 0-.126.07 3.56 3.56 0 0 0-1.197 4.592A3.55 3.55 0 0 0 2.505 32.9a3.558 3.558 0 0 0 2.757-.257l2.776-1.477 4.528-2.338 2.714-.016L4.396 39.644q0 .002-.003.003l-2.677 2.666a3.3 3.3 0 0 0-.98 2.355c0 .89.347 1.727.98 2.358.65.646 1.504.97 2.358.97.856 0 1.709-.324 2.36-.97l2.629-2.618 3.481-2.6 1.802 1.795-3.523 3.508-.003.002-2.678 2.667a3.3 3.3 0 0 0-.98 2.355c0 .89.348 1.727.98 2.358.65.646 1.505.97 2.36.97.854 0 1.71-.324 2.36-.97l2.679-2.667 4.285-4.267q0 0 .002-.003l2.019-2-.008-.008c.013-.012.031-.017.044-.03L32.215 34.2l6.942.988q.075.01.15.01c.13 0 .254-.03.375-.076q.05-.02.1-.047c.038-.02.078-.03.114-.054l6.427-4.267c.024-.016.036-.042.059-.059.025-.02.057-.029.08-.051l2.544-2.382a3.56 3.56 0 0 0 .423-4.723M4.26 30.76c-.346.186-.74.223-1.116.104a1.43 1.43 0 0 1-.425-2.52l2.628-1.264.632 1.848.266.777zm6.995-3.655-3.097 1.6-.51-1.494-.367-1.073 4.053-2.001zm30.199-13.241c0 1.836-.438 3.569-1.198 5.119l-8.363-3.799a3.72 3.72 0 0 0-1.576-2.775l2.928-9.721C38 4.202 41.454 8.638 41.454 13.865m-23.578 0c0-6.47 5.289-11.734 11.789-11.734.506 0 1 .043 1.49.105l-2.864 9.507c-.038-.001-.075-.012-.114-.012a3.743 3.743 0 0 0-3.745 3.734 3.744 3.744 0 0 0 3.745 3.733c1.389 0 2.589-.767 3.236-1.889l7.725 3.51c-2.15 2.892-5.59 4.78-9.473 4.78-6.5 0-11.789-5.265-11.789-11.734m11.913 1.6c0 .882-.724 1.6-1.612 1.6a1.61 1.61 0 0 1-1.612-1.6c0-.882.723-1.6 1.612-1.6.888 0 1.612.718 1.612 1.6M4.929 45.513a1.217 1.217 0 0 1-1.708.001 1.19 1.19 0 0 1 0-1.688l1.924-1.917 1.702 1.695zm6.428 7.467a1.216 1.216 0 0 1-1.71.001 1.19 1.19 0 0 1 0-1.688l1.926-1.918.805.8.898.895zm6.964-6.938-.004.002-3.53 3.52-.805-.8-.898-.895 3.527-3.51q0-.002.003-.003c.08-.08.13-.176.18-.27.013-.029.04-.052.052-.08.033-.083.038-.172.05-.258.007-.05.028-.095.028-.145 0-.072-.025-.141-.04-.212-.013-.063-.013-.129-.037-.19-.04-.1-.11-.19-.183-.276-.02-.023-.027-.053-.05-.075h-.001l-.002-.005-3.214-3.2c-.034-.034-.078-.048-.116-.076a1 1 0 0 0-.174-.116 1 1 0 0 0-.187-.065 1 1 0 0 0-.206-.04 1 1 0 0 0-.19.01 1 1 0 0 0-.209.04 1 1 0 0 0-.188.09c-.04.023-.085.03-.122.058l-3.547 2.648L6.657 40.4l4.798-4.773 8.72 8.577zM31.958 32.01c-.03-.004-.06.008-.09.005a1.091 1.091 0 0 0-.406.056 1 1 0 0 0-.194.095q-.089.052-.166.122c-.026.023-.057.034-.08.059l-9.397 10.291-8.656-8.513 5.666-5.636a1.068 1.068 0 0 0-.759-1.822v-.001l-4.437.027.055-3.215 6.208.053a13.9 13.9 0 0 0 9.963 4.202c.875 0 1.728-.091 2.559-.246.08.064.159.13.26.17l4.818 1.92.305 1.517.357 1.77zm8.083.356-.626-3.116 2.892-2.16.758 1.005 1.136 1.508zm7.507-5.662-1.676 1.57-1.862-2.472 1.663-1.275c.31-.239.701-.336 1.085-.286.387.055.728.256.96.569.434.583.36 1.397-.17 1.894"/></svg>