<svg xmlns="http://www.w3.org/2000/svg" width="62" height="64" fill="none" viewBox="0 0 62 64"><path fill="#2e2f42" d="M61.218 30.603C61.215 13.697 47.508-.004 30.602 0 13.699.003-.003 13.71 0 30.616a30.61 30.61 0 0 0 21.299 29.152q.182.058.373.057c.242 0 .478-.065.685-.187.27-.16.472-.414.567-.713l7.73-24.5a3.826 3.826 0 1 0-1.68-7.27L18.762 16.942a1.275 1.275 0 0 0-1.803 1.804l10.207 10.218a3.75 3.75 0 0 0 1.072 4.618l-7.365 23.346C6.317 51.566-1.136 35.42 4.226 20.864 9.588 6.31 25.734-1.145 40.29 4.217 54.845 9.58 62.298 25.726 56.937 40.281a28.09 28.09 0 0 1-14.925 15.947l-.796-3.749a1.275 1.275 0 0 0-2.096-.687l-7.674 6.851a1.275 1.275 0 0 0 .462 2.169l9.797 3.127a1.275 1.275 0 0 0 1.638-1.48l-.782-3.678a30.51 30.51 0 0 0 18.657-28.178M30.61 29.327a1.276 1.276 0 1 1 0 2.552 1.276 1.276 0 0 1 0-2.552m4.201 29.728 4.368-3.896 1.206 5.68z"/></svg>