<svg xmlns="http://www.w3.org/2000/svg" width="64" height="50" fill="none" viewBox="0 0 64 50"><path fill="#2e2f42" d="M3.198 49.086h51.174a3.2 3.2 0 0 0 3.198-3.199v-4.264a3.2 3.2 0 0 0-3.199-3.198h-1.066V11.838L59.361 6.1a3.216 3.216 0 1 0-1.493-1.525L53.305 8.9V6.44a3.2 3.2 0 0 0-3.198-3.198H7.463A3.2 3.2 0 0 0 4.264 6.44v31.984H3.198A3.2 3.2 0 0 0 0 41.623v4.264a3.2 3.2 0 0 0 3.198 3.199m57.57-46.91a1.066 1.066 0 1 1 0 2.133 1.066 1.066 0 0 1 0-2.132M6.397 6.442c0-.589.477-1.066 1.066-1.066h42.644c.589 0 1.066.477 1.066 1.066v4.478l-2.132 2.026V8.573c0-.588-.477-1.066-1.066-1.066H9.595c-.589 0-1.066.478-1.066 1.066v26.653c0 .589.477 1.066 1.066 1.066h38.38c.589 0 1.066-.477 1.066-1.066V15.877l2.132-2.02v24.568H6.397zm9.595 13.86a3.198 3.198 0 1 0 2.214 5.496l3.706 1.86c.43.215.953.114 1.273-.245l7.877-8.863 7.744 5.803c.416.311.996.278 1.372-.079l6.73-6.375V34.16H10.662V9.64H46.91v5.32l-7.543 7.143-7.81-5.854a1.067 1.067 0 0 0-1.435.144l-7.986 8.986-2.986-1.493q.033-.192.041-.387a3.2 3.2 0 0 0-3.198-3.198m1.066 3.198a1.066 1.066 0 1 1-2.133 0 1.066 1.066 0 0 1 2.133 0m6.396 17.058h10.661v1.066c0 .589-.477 1.066-1.066 1.066H24.52a1.066 1.066 0 0 1-1.066-1.066zM2.132 41.623c0-.589.478-1.066 1.066-1.066h18.124v1.066a3.2 3.2 0 0 0 3.198 3.198h8.53a3.2 3.2 0 0 0 3.198-3.198v-1.066h18.124c.588 0 1.066.477 1.066 1.066v4.264c0 .589-.478 1.066-1.067 1.066H3.198a1.066 1.066 0 0 1-1.066-1.066z"/></svg>